<svg xmlns="http://www.w3.org/2000/svg" width="134" height="21" viewBox="0 0 134 21">
    <g fill="#5DD331">
        <path d="M8.86 5.797h3.465L9.762 20.445H6.297l.873-5c-.841.741-1.934 1.132-3.055 1.092-1.5 0-2.606-.565-3.318-1.695-.711-1.13-.944-2.45-.7-3.96.215-1.432.873-2.761 1.883-3.8C2.963 6.043 4.34 5.47 5.77 5.5c1.333 0 2.295.49 2.885 1.467l.205-1.17zM4.445 9.375c-.48.429-.792 1.015-.88 1.652-.11.685 0 1.235.315 1.655.357.435.904.67 1.465.628.627.01 1.235-.213 1.705-.628.486-.426.802-1.014.89-1.655.112-.682 0-1.235-.315-1.652-.315-.418-.815-.625-1.485-.625-.623-.012-1.229.211-1.695.625zM20.967 5.797h3.463L22.58 16.25h-3.465l.19-1.073c-.757.899-1.88 1.405-3.055 1.375-1.13 0-1.998-.394-2.605-1.182-.607-.788-.79-1.893-.553-3.315l1.105-6.25h3.463l-1.025 5.815c-.083.56-.006.977.232 1.25.279.288.67.438 1.07.407.49.016.969-.156 1.335-.482.39-.381.638-.882.705-1.423v.028l.99-5.603zM24.597 16.25L26.45 5.787h3.462l-1.85 10.463h-3.465zm3.768-11.323c-.507.012-.992-.208-1.318-.597-.326-.389-.457-.905-.357-1.403.092-.543.374-1.036.795-1.392.416-.385.963-.598 1.53-.598.51-.021 1.002.196 1.33.588.327.392.454.914.342 1.412-.08.556-.364 1.063-.795 1.423-.418.377-.963.583-1.527.577v-.01zM35.417 16.552c-1.666 0-2.964-.55-3.892-1.652-.928-1.102-1.262-2.462-1-4.08.475-3.068 3.12-5.33 6.225-5.32.984-.03 1.956.23 2.792.75.753.485 1.347 1.18 1.708 2l-3.16 1.652c-.275-.647-.93-1.049-1.633-1-.593-.007-1.17.2-1.622.585-.456.384-.754.923-.835 1.513-.133.538-.013 1.108.325 1.547.334.409.843.634 1.37.608.786.013 1.522-.383 1.945-1.045l2.762 1.75c-.501.852-1.234 1.546-2.112 2-.887.46-1.873.699-2.873.692zM52.85 5.797L48.455 11.047 51.177 16.25 47.452 16.25 45.222 11.63 44.407 16.25 40.942 16.25 43.527 1.6 47 1.6 45.53 9.932 48.862 5.787zM83.5 8.75c-.624-.011-1.229.213-1.695.627-.48.429-.792 1.015-.878 1.653-.13.572-.013 1.172.323 1.652.357.435.904.67 1.465.628.62.012 1.224-.204 1.695-.608.48-.414.8-.985.9-1.612v-.063c.136-.57.023-1.17-.31-1.652-.333-.417-.833-.625-1.5-.625z"/>
        <path d="M56.712 0L54 19.5h77.05L133.765 0H56.712zm19.583 9.857l-1.108 6.393h-3.5l1.038-6c.18-.975-.163-1.463-1.028-1.463s-1.43.475-1.697 1.423l-1.07 6.04h-3.465l1.035-6c.153-.975-.194-1.463-1.043-1.463-.903 0-1.479.53-1.727 1.588l-1.038 5.875H59.23l1.85-10.463h3.465l-.168.963c.746-.815 1.806-1.27 2.91-1.25 1.215 0 2.054.467 2.515 1.402.822-.896 1.982-1.405 3.198-1.402 1.188 0 2.092.39 2.712 1.172.62.782.815 1.844.583 3.185zm11.562 6.393h-3.472l.145-.815c-.837.75-1.932 1.147-3.055 1.107-1.5 0-2.606-.565-3.318-1.695-.711-1.13-.945-2.455-.7-3.975.215-1.432.873-2.761 1.883-3.8.985-1.035 2.361-1.606 3.79-1.572 1.333 0 2.296.482 2.887 1.445l.208-1.15H89.7L87.857 16.25zm7.588-6.405c-.725.392-1.173 1.08-1.348 2.07l-.767 4.335h-3.463L91.72 5.787h3.462l-.347 1.963c.291-.677.79-1.243 1.425-1.618.641-.371 1.371-.562 2.112-.552l-.647 3.85c-.786-.11-1.587.039-2.28.425v-.01zm8.882 6.405l-2.23-4.62-.815 4.62H97.82l2.585-14.65h3.462l-1.47 8.332 3.333-4.145h4l-4.395 5.25 2.717 5.213h-3.725zm15.32-5.25c-.063.446-.182.882-.355 1.297h-7.18c.195.85.862 1.276 2 1.278.762.028 1.506-.24 2.073-.75l2.217 2.03c-1.211 1.13-2.732 1.695-4.562 1.695s-3.193-.55-4.09-1.65c-.915-1.103-1.24-2.463-.975-4.08.225-1.492.988-2.85 2.145-3.82 1.136-.988 2.597-1.523 4.102-1.5 1.575 0 2.81.534 3.705 1.602.895 1.069 1.202 2.368.92 3.898zm8.035-1.883H125.5l-.523 3.033c-.085.475.028.767.335.88.308.112.865.14 1.673.082l-.535 3.138c-1.967.272-3.355.077-4.165-.585-.81-.662-1.072-1.8-.785-3.415l.542-3.118h-1.57l.588-3.327h1.57l.335-1.885 3.662-1.045-.525 2.93h2.198l-.618 3.312z"/>
        <path d="M114.835 8.432c-1.032 0-1.8.482-2.303 1.445h3.968c-.078-.961-.633-1.443-1.665-1.445z"/>
    </g>
</svg>
