<svg xmlns="http://www.w3.org/2000/svg" xmlns:xlink="http://www.w3.org/1999/xlink" width="51" height="51" viewBox="0 0 51 51">
  <defs>
    <filter id="Rectangle_448" x="0" y="0" width="51" height="51" filterUnits="userSpaceOnUse">
      <feOffset dy="3" input="SourceAlpha"/>
      <feGaussianBlur stdDeviation="3" result="blur"/>
      <feFlood flood-color="#6a6a6a" flood-opacity="0.078"/>
      <feComposite operator="in" in2="blur"/>
      <feComposite in="SourceGraphic"/>
    </filter>
  </defs>
  <g id="btn_next" transform="translate(-1414 -764)">
    <g transform="matrix(1, 0, 0, 1, 1414, 764)" filter="url(#Rectangle_448)">
      <g id="Rectangle_448-2" data-name="Rectangle 448" transform="translate(9 6)" fill="#fff" stroke="rgba(112,112,112,0.2)" stroke-width="1">
        <rect width="33" height="33" rx="4" stroke="none"/>
        <rect x="0.5" y="0.5" width="32" height="32" rx="3.5" fill="none"/>
      </g>
    </g>
    <path id="Path_11442" data-name="Path 11442" d="M12.607,2.175a.511.511,0,0,0,0-.72L11.293.148a.5.5,0,0,0-.712,0l-4.2,4.2-4.2-4.2a.5.5,0,0,0-.712,0L.148,1.454a.511.511,0,0,0,0,.72L6.021,8.04a.5.5,0,0,0,.712,0Z" transform="translate(1435.305 792.777) rotate(-90)" fill="#434340"/>
  </g>
</svg>
