<svg xmlns="http://www.w3.org/2000/svg" xmlns:xlink="http://www.w3.org/1999/xlink" width="48.689" height="48.689" viewBox="0 0 48.689 48.689">
  <defs>
    <filter id="Ellipse_5" x="0" y="0" width="48.689" height="48.689" filterUnits="userSpaceOnUse">
      <feOffset dy="3" input="SourceAlpha"/>
      <feGaussianBlur stdDeviation="3" result="blur"/>
      <feFlood flood-opacity="0.078"/>
      <feComposite operator="in" in2="blur"/>
      <feComposite in="SourceGraphic"/>
    </filter>
  </defs>
  <g id="ic_close" transform="translate(-1104 -259)">
    <g id="Group_3573" data-name="Group 3573" transform="translate(1113 265)">
      <g transform="matrix(1, 0, 0, 1, -9, -6)" filter="url(#Ellipse_5)">
        <circle id="Ellipse_5-2" data-name="Ellipse 5" cx="15.345" cy="15.345" r="15.345" transform="translate(9 6)" fill="#f9d96a"/>
      </g>
    </g>
    <path id="Icon_awesome-angle-down" data-name="Icon awesome-angle-down" d="M4.529,10.964.22,15.273a.757.757,0,0,0,0,1.074l.716.716a.757.757,0,0,0,1.074,0l3.054-3.055,3.054,3.055a.757.757,0,0,0,1.074,0l.716-.716a.757.757,0,0,0,0-1.074L5.6,10.964a.753.753,0,0,0-1.071,0Z" transform="translate(1123.003 266.26)" fill="#434340"/>
  </g>
</svg>
