<svg xmlns="http://www.w3.org/2000/svg" xmlns:xlink="http://www.w3.org/1999/xlink" width="80" height="80" viewBox="0 0 80 80">
  <defs>
    <filter id="Ellipse_5" x="0" y="0" width="80" height="80" filterUnits="userSpaceOnUse">
      <feOffset dy="3" input="SourceAlpha"/>
      <feGaussianBlur stdDeviation="3" result="blur"/>
      <feFlood flood-opacity="0.051"/>
      <feComposite operator="in" in2="blur"/>
      <feComposite in="SourceGraphic"/>
    </filter>
  </defs>
  <g id="ic_empty_cart" transform="translate(-512 -447)">
    <g id="Group_3573" data-name="Group 3573" transform="translate(521 453)">
      <g transform="matrix(1, 0, 0, 1, -9, -6)" filter="url(#Ellipse_5)">
        <circle id="Ellipse_5-2" data-name="Ellipse 5" cx="31" cy="31" r="31" transform="translate(9 6)" fill="#fff3f2"/>
      </g>
    </g>
    <path id="card" d="M25.816,1.75a2.869,2.869,0,0,1,2.891,2.891v17.21a2.87,2.87,0,0,1-2.891,2.891H2.891A2.79,2.79,0,0,1,.84,23.9,2.787,2.787,0,0,1,0,21.852V4.641A2.79,2.79,0,0,1,.841,2.59a2.787,2.787,0,0,1,2.05-.84Zm0,20.1V13.246H2.891v8.606Zm0-14.32V4.641H2.891V7.531H25.816Z" transform="translate(537.944 470.453)" fill="#fc9287"/>
  </g>
</svg>
