<svg xmlns="http://www.w3.org/2000/svg" width="93" height="60.464" viewBox="0 0 93 60.464">
  <g id="ic_logo" transform="translate(-100.902 -419.228)">
    <g id="Group_30" data-name="Group 30" transform="translate(113.641 419.228)">
      <path id="Path_18" data-name="Path 18" d="M319.58,221.29s10.951,13.753,0,27.756q2.381-2.222,4.725-4.477c1.272-1.221,2.535-2.457,3.765-3.721a13.743,13.743,0,0,0,3.04-3.6,5.5,5.5,0,0,0-.4-4.705c-.986-1.852-2.728-3.214-4.226-4.628-.1-.09-.19-.18-.284-.27-1.972-1.907-3.939-3.82-5.933-5.707A7.2,7.2,0,0,1,319.58,221.29Z" transform="translate(-319.58 -216.279)" fill="#582816"/>
      <path id="Path_19" data-name="Path 19" d="M379.991,232.243a.706.706,0,0,1,.026.232q0,3.744,0,7.485v11.073c0,.615.19,1.556-.277,2-.789.747-1.755-.673-2.229-1.15l-2.583-2.583c-.9-.9-1.771-1.878-2.731-2.7a5.772,5.772,0,0,1-2.042-3.733c-.284-2.828,2.1-4.564,3.855-6.387q1.261-1.3,2.519-2.609c.577-.6,1.369-1.817,2.209-2.032a1.341,1.341,0,0,1,1.056.177.47.47,0,0,1,.186.193A.156.156,0,0,1,379.991,232.243Z" transform="translate(-353.848 -223.402)" fill="#582816"/>
      <path id="Path_20" data-name="Path 20" d="M421.867,212.406a8.672,8.672,0,0,0-.042,1.61v19.247c0,.857-.013,1.717,0,2.573a5.208,5.208,0,0,0,.309,2.2,6.6,6.6,0,0,0,1.7,1.92q1.087,1.019,2.135,2.084a6.747,6.747,0,0,0,1.907,1.494,3.923,3.923,0,0,0,2.567.161,6.877,6.877,0,0,0,2.992-2.274c.428-.441.86-.883,1.288-1.324.335-.348.776-.7.834-1.208.058-.528-.367-.841-.689-1.179-.3-.316-.586-.644-.86-.979a21.527,21.527,0,0,1-2.432-3.678,18.674,18.674,0,0,1-1.9-5.6,16.6,16.6,0,0,1,.4-7.083,20.515,20.515,0,0,1,2.812-5.945,18.865,18.865,0,0,1,2.209-2.815c.353-.353.709-.644.538-1.2-.277-.915-1.228-1.465-1.884-2.087a9.187,9.187,0,0,0-3.189-2.412c-2.277-.741-3.852.966-5.279,2.428-.6.612-1.192,1.23-1.8,1.826a6.4,6.4,0,0,0-1.453,1.755A1.8,1.8,0,0,0,421.867,212.406Z" transform="translate(-388.883 -205.73)" fill="#582816"/>
      <path id="Path_21" data-name="Path 21" d="M474.928,221.8l6.387,6.387c1,1,1.981,2.016,3.011,2.979a6.6,6.6,0,0,1,2.126,3.092c.9,3.617-2.953,6.4-5.156,8.59-1.913,1.9-3.775,3.894-5.752,5.723a2.724,2.724,0,0,1-2.264.863c-1.195-.235-2.029-1.671-2.712-2.609a21.077,21.077,0,0,1-1.527-2.409,19.251,19.251,0,0,1-2.325-7.45,17.459,17.459,0,0,1,.853-7.121,21.515,21.515,0,0,1,4.219-7.463,3.846,3.846,0,0,1,1.085-.889A1.763,1.763,0,0,1,474.928,221.8Z" transform="translate(-419.283 -216.278)" fill="#582816"/>
      <circle id="Ellipse_8" data-name="Ellipse 8" cx="1.662" cy="1.662" r="1.662" transform="translate(57.42 13.791)" fill="#fff"/>
    </g>
    <g id="Group_31" data-name="Group 31" transform="translate(100.902 459.628)">
      <path id="Path_22" data-name="Path 22" d="M321.211,350.957a7.85,7.85,0,0,1-1.869-.09.731.731,0,0,1-.164-.016c-.051-.012-.105-.023-.163-.043q-.239-.058-.444-.105a3.04,3.04,0,0,1-.385-.105l-.238-.089a3.757,3.757,0,0,1-1.6-1.1,4.145,4.145,0,0,1-.681-1.188.676.676,0,0,1-.074-.222,1.426,1.426,0,0,0-.043-.195v-.089a.413.413,0,0,1-.031-.179v-.117a3.669,3.669,0,0,1,0-.654,4.076,4.076,0,0,1,.592-2.048,1.432,1.432,0,0,1,.149-.269,1.079,1.079,0,0,1,.164-.238c.07-.078.132-.16.195-.238l.179-.238a8.5,8.5,0,0,1,2.434-1.81l.565-.269.565-.238.3-.117.269-.09a12.554,12.554,0,0,1,1.23-.4c.4-.109.786-.2,1.141-.284l.444-.089a3.792,3.792,0,0,1,.533-.089q.3-.029.654-.058c.136-.019.28-.035.428-.043s.3-.016.46-.016a.762.762,0,0,0,.149-.016.9.9,0,0,1,.179-.016c.335-.019.678-.031,1.023-.031h1.082l1.129.058c.374.019.751.051,1.129.09a15.4,15.4,0,0,1,1.811.265c.117.019.234.039.343.058a2.626,2.626,0,0,1,.343.09l.623.179.3.09.533.238a.661.661,0,0,1,.238.117.958.958,0,0,1,.238.132,1.169,1.169,0,0,0,.206.132,3.621,3.621,0,0,1,.358.3l.149.149.121.179.179.327c.039.1.078.191.121.28a1.385,1.385,0,0,1,.09.28,1.211,1.211,0,0,1,.089.681v.09a.411.411,0,0,0-.031.179,1.314,1.314,0,0,1-.206.444l-.09.09-.238.206c-.039.039-.07.058-.089.058l-.09.058a.515.515,0,0,1-.149.058,1.029,1.029,0,0,0-.121-.105c-.039-.031-.09-.062-.149-.1a8.583,8.583,0,0,0-2.075-.829l-.654-.206-1.188-.3-.744-.179c-.514-.1-1.012-.191-1.5-.28s-.954-.152-1.41-.191q-.473.981-1.1,2.359t-1.272,3.008a8.072,8.072,0,0,1,1.425-.163,3.841,3.841,0,0,1,1.367.222,1.594,1.594,0,0,1,.966.86,2.2,2.2,0,0,1,.105,1.1,4.7,4.7,0,0,1-.5,1.367,1,1,0,0,0-.46-.623,2.613,2.613,0,0,0-.934-.343,5.918,5.918,0,0,0-1.3-.074c-.494.019-1.02.058-1.573.121q-.269.771-.5,1.525c-.16.506-.316,1.023-.475,1.557-.078.276-.179.709-.3,1.289a13.518,13.518,0,0,0-.238,1.838,9.9,9.9,0,0,0,.058,1.869,2.173,2.173,0,0,0,.592,1.351,2.943,2.943,0,0,1-.592.121,2.551,2.551,0,0,1-.623.047,5.344,5.344,0,0,1-.681-.074.505.505,0,0,1-.206-.031,1.781,1.781,0,0,1-.8-.46,1.957,1.957,0,0,1-.432-.666,2.223,2.223,0,0,1-.149-.712c-.012-.238-.016-.424-.016-.565a21.467,21.467,0,0,1,.46-3.367A34.707,34.707,0,0,1,321.211,350.957Zm3.115-8.013a2.506,2.506,0,0,0-.444.058l-1.483.358-.919.327-.565.238-.506.238-.444.269a2.264,2.264,0,0,0-.386.269l-.475.417a.7.7,0,0,0-.149.132,1.355,1.355,0,0,1-.117.132,2.653,2.653,0,0,0-.549.845,2.946,2.946,0,0,0-.191.814,1.179,1.179,0,0,0,.089.713l.09.206a1.493,1.493,0,0,0,.67.654,3.884,3.884,0,0,0,1.082.353,7.676,7.676,0,0,0,1.452.117.954.954,0,0,0,.179-.016,1.385,1.385,0,0,1,.179-.016q.625-1.84,1.289-3.411c.445-1.046.838-1.945,1.2-2.7Zm-2.7.089a.049.049,0,0,0-.043.016c-.012.012-.035.016-.074.016a1.186,1.186,0,0,0-.195.016c-.07.012-.152.023-.253.047l-.149.058a3.05,3.05,0,0,0-.728.3,2.831,2.831,0,0,0-.7.565l-.09.089-.09.09-.058.089c.019-.019.07-.058.149-.117a1.431,1.431,0,0,1,.179-.149c.078-.058.167-.117.269-.179a2.472,2.472,0,0,1,.353-.206c.2-.1.409-.2.638-.3a4,4,0,0,1,.756-.238l.385-.09h-.353Zm-1.238,15.13a2.111,2.111,0,0,0,.121.744,1.5,1.5,0,0,0,.385.549,1.533,1.533,0,0,0,.8.343,3.794,3.794,0,0,1-.58-.37,2.449,2.449,0,0,1-.728-1.266Zm7.117-7.772a2.758,2.758,0,0,0-.592-.238,4.966,4.966,0,0,0-.74-.074,3.317,3.317,0,0,0-1.04.164,6.811,6.811,0,0,1,.892-.058,7.325,7.325,0,0,1,.771.043,2.9,2.9,0,0,1,.709.164Zm8.157-6.592a1.575,1.575,0,0,0,.031-.353l-.058-.269a1.393,1.393,0,0,0-.132-.253,1.583,1.583,0,0,1-.132-.222l-.09-.117a2.45,2.45,0,0,0-.444-.385l-.09-.09a.163.163,0,0,0,.058.09l.179.237a2.47,2.47,0,0,1,.206.353l.089.149a2.272,2.272,0,0,1,.164.417,2.482,2.482,0,0,0,.105.327.4.4,0,0,0,.016.117.327.327,0,0,1,.016.089v.117Z" transform="translate(-315.5 -340.172)" fill="#582816"/>
      <path id="Path_23" data-name="Path 23" d="M349.387,365.5a1.711,1.711,0,0,1-.981-.565,2.722,2.722,0,0,1-.506-1.114,4.408,4.408,0,0,1,.149-2.032,9.955,9.955,0,0,1,.354-1.483c.14-.494.335-1.1.592-1.826s.592-1.589,1.008-2.6a4.766,4.766,0,0,1,.95-.206,3.527,3.527,0,0,1,.966.015,4.121,4.121,0,0,1,1.141.343q-.742,1.664-1.273,3.025c-.16.4-.3.783-.428,1.156s-.234.716-.311,1.023a5.189,5.189,0,0,0-.149.787c-.019.218.012.353.09.417a.138.138,0,0,0,.149.09.479.479,0,0,0,.206-.058,1.065,1.065,0,0,0,.3-.269,6.342,6.342,0,0,0,.417-.565q.239-.356.5-.771c.175-.276.351-.553.518-.829s.331-.526.491-.744a.917.917,0,0,1,.3-.358,1.012,1.012,0,0,1,.353-.179.609.609,0,0,1,.444.058.634.634,0,0,1,.358.755,3.791,3.791,0,0,1-.475,1.23c-.117.218-.331.6-.639,1.156a11.919,11.919,0,0,1-1.125,1.663,7.252,7.252,0,0,1-1.526,1.425A2.506,2.506,0,0,1,349.387,365.5Zm-.592-1.335a.842.842,0,0,0,.149.5,1.11,1.11,0,0,0,.417.3,1.746,1.746,0,0,0,.829.059.968.968,0,0,1-.506-.09,1.233,1.233,0,0,1-.475-.253,1.642,1.642,0,0,1-.414-.514Zm.973-6.53c.039-.078.105-.195.191-.343a3.479,3.479,0,0,1,.343-.475,2.454,2.454,0,0,1,.475-.444,1.5,1.5,0,0,1,.565-.253,2.841,2.841,0,0,1-.385.031,1.592,1.592,0,0,1-.311.031.554.554,0,0,0-.222.031Zm1.958-5.342c.238-.039.557-.074.966-.105a3.205,3.205,0,0,1,1.289.191.793.793,0,0,1,.206.149.437.437,0,0,1,.058.5l-.444,1.009a1.662,1.662,0,0,1-.09.206,1.139,1.139,0,0,1-.206.3,2.047,2.047,0,0,1-.533.417,1.434,1.434,0,0,1-.95.121,1.508,1.508,0,0,1-.8-.28,1.15,1.15,0,0,1-.358-.459.522.522,0,0,1-.031-.385l.058-.238c.058-.179.125-.358.191-.533s.152-.374.253-.592a.469.469,0,0,1,.09-.117.678.678,0,0,1,.3-.18Zm-.592,1.6a.745.745,0,0,1,.132-.206c.089-.117.2-.257.327-.417a2.48,2.48,0,0,1,.475-.444,1.835,1.835,0,0,1,.607-.3,1.393,1.393,0,0,1-.269.031,1.05,1.05,0,0,1-.253.031,1.047,1.047,0,0,0-.253.031.453.453,0,0,0-.238.149c-.039.039-.058.07-.058.089Z" transform="translate(-335.246 -347.507)" fill="#582816"/>
      <path id="Path_24" data-name="Path 24" d="M366.169,360.2a2.012,2.012,0,0,0-.238,1.262c.059.444.144.934.253,1.468s.2,1.129.269,1.779a6.62,6.62,0,0,1-.164,2.165,4.06,4.06,0,0,1-.9,1.885,3.376,3.376,0,0,1-1.261.876,3.427,3.427,0,0,1-1.6.269,3.216,3.216,0,0,1-1.853-.5,2.792,2.792,0,0,1-.907-1.067,3.455,3.455,0,0,1-.327-1.515,4.646,4.646,0,0,1,.179-1.378,2.975,2.975,0,0,1,.49-.981,2.077,2.077,0,0,1,.7-.6,2.71,2.71,0,0,1,.8-.253l1.04-2.075c.16-.316.307-.615.444-.892s.269-.514.385-.712c.136-.218.269-.424.385-.623a5.114,5.114,0,0,1,1.129.206,4.394,4.394,0,0,1,.712.3A1.568,1.568,0,0,1,366.169,360.2Zm-5.724,8.25a2.814,2.814,0,0,0,.8.651,3.074,3.074,0,0,0,1.008.343,3.4,3.4,0,0,0,1.452-.132c-.058,0-.2.012-.417.031a3.36,3.36,0,0,1-.786-.043,6.191,6.191,0,0,1-.993-.253,3.673,3.673,0,0,1-1.067-.6Zm2.313-1.3a1.114,1.114,0,0,0,.755-.638,3.206,3.206,0,0,0,.269-1.082,5.272,5.272,0,0,0-.031-1.141c-.051-.366-.093-.639-.132-.818l-.444.744a1.021,1.021,0,0,1,.163.28,2.162,2.162,0,0,0,.105.253c.019.078.039.16.058.238a2.658,2.658,0,0,0-.681.149,2.034,2.034,0,0,0-.533.358,1.184,1.184,0,0,0-.354.681.78.78,0,0,0,.179.892.364.364,0,0,0,.206.105,1.39,1.39,0,0,0,.206.016,1.69,1.69,0,0,0,.233-.035Zm1.421-7.421c.4.1.732.2,1.008.3a1.922,1.922,0,0,1,.475.206,1.3,1.3,0,0,0-.428-.28,2.484,2.484,0,0,0-1.055-.222Z" transform="translate(-342.329 -351.86)" fill="#582816"/>
      <path id="Path_25" data-name="Path 25" d="M386.191,362.029a1.567,1.567,0,0,1-.981-.565,2.575,2.575,0,0,1-.491-1.113,4.651,4.651,0,0,1,.163-2.033,4.19,4.19,0,0,1,.117-.565c.039-.2.1-.436.179-.713s.179-.611.3-1.008l.09-.238c.039-.117.082-.273.132-.46a2.792,2.792,0,0,0,.089-.565,2.046,2.046,0,0,0-.031-.5.279.279,0,0,0-.222-.253c-.14-.039-.347.074-.623.343a7.592,7.592,0,0,0-.892,1.082,13.175,13.175,0,0,0-.934,1.6,12.063,12.063,0,0,0-.755,1.9,5.3,5.3,0,0,0-.195.681q-.076.356-.164.712a1.707,1.707,0,0,0-.058.744,1.536,1.536,0,0,0,.164.475.853.853,0,0,0,.238.269.48.48,0,0,0,.164.089,1.714,1.714,0,0,1-.533.222c-.2.051-.385.093-.565.132a1.107,1.107,0,0,1-.269.031,1.607,1.607,0,0,1-1.039-.179,1.335,1.335,0,0,1-.506-.607,2.329,2.329,0,0,1-.164-.756,4.3,4.3,0,0,1,.016-.623,30.9,30.9,0,0,1,1.11-4.925q.753-2.4,1.525-4.271.888-2.2,1.9-4.123l.3-.149a2.2,2.2,0,0,1,.428-.105,4.4,4.4,0,0,1,.7-.043,2.537,2.537,0,0,1,.713.089,4.13,4.13,0,0,1,.506.179,2.08,2.08,0,0,1,.385.238q-.444.858-.919,1.9-.415.888-.934,2.075t-1.05,2.583a5.661,5.661,0,0,1,1.1-.861,2.585,2.585,0,0,1,1.215-.385,2.728,2.728,0,0,1,.506.058,1.86,1.86,0,0,1,1.6,1.215,4.17,4.17,0,0,1-.179,2.729,16.165,16.165,0,0,0-.549,1.721c-.129.514-.113.822.043.919a.138.138,0,0,0,.149.089.476.476,0,0,0,.206-.058,1.064,1.064,0,0,0,.3-.269,6.3,6.3,0,0,0,.417-.565c.16-.238.319-.494.491-.771s.343-.553.518-.829.335-.526.475-.744a.876.876,0,0,1,.3-.353,1.014,1.014,0,0,1,.353-.179.608.608,0,0,1,.444.058.651.651,0,0,1,.37.755,3.556,3.556,0,0,1-.459,1.23c-.117.218-.331.6-.639,1.156a12.143,12.143,0,0,1-1.125,1.663,7.054,7.054,0,0,1-1.542,1.425A2.548,2.548,0,0,1,386.191,362.029Zm-6.229-.8a1.346,1.346,0,0,0,.179.417,1.078,1.078,0,0,0,.343.265,1.215,1.215,0,0,0,.638.089,2.372,2.372,0,0,1-.444-.163A1.751,1.751,0,0,1,379.961,361.23Zm4.209-14.036c-.1.16-.2.327-.3.5a4.972,4.972,0,0,0-.28.518q-.134.28-.28.549a1.64,1.64,0,0,1,.206-.327c.117-.16.257-.335.417-.533a3.458,3.458,0,0,1,.533-.533,1.769,1.769,0,0,1,.592-.327q-.21.029-.385.058c-.1.019-.2.035-.3.047a.7.7,0,0,0-.21.047Zm1.429,13.5a.842.842,0,0,0,.149.5,1.11,1.11,0,0,0,.417.3,1.746,1.746,0,0,0,.829.058.911.911,0,0,1-.5-.09,1.231,1.231,0,0,1-.475-.253,1.555,1.555,0,0,1-.418-.514Z" transform="translate(-354.517 -344.045)" fill="#582816"/>
      <path id="Path_26" data-name="Path 26" d="M427.421,355.31a.651.651,0,0,1,.37.755,3.524,3.524,0,0,1-.459,1.23c-.1.179-.257.471-.475.876a12.986,12.986,0,0,1-.8,1.293,10.057,10.057,0,0,1-1.1,1.321,4.526,4.526,0,0,1-1.335.966,3.579,3.579,0,0,1-.712.222,2.208,2.208,0,0,1-.771.016,2.377,2.377,0,0,1-.623-.269,1.861,1.861,0,0,1-.475-.46,2.184,2.184,0,0,1-.358-.876,5.3,5.3,0,0,1-.047-.9,5.688,5.688,0,0,1,.191-1.2q.088-.474.269-1.188c.1-.4.242-.884.428-1.468s.44-1.269.755-2.064c.136-.353.3-.771.491-1.246s.331-.822.428-1.04l.179-.475c-.456-.039-.732-.16-.829-.353a.861.861,0,0,1-.058-.623,3.19,3.19,0,0,1,.444-.86,1.151,1.151,0,0,0,.95.623q.3-.654.549-1.156c.167-.335.311-.635.428-.892l.386-.771.3-.149a2.2,2.2,0,0,1,.428-.105,4.424,4.424,0,0,1,.7-.043,2.538,2.538,0,0,1,.713.089,3.829,3.829,0,0,1,.5.179,2.079,2.079,0,0,1,.385.238c-.078.16-.167.335-.269.533a5.385,5.385,0,0,0-.311.607c-.109.249-.234.518-.37.814.4-.136.79-.292,1.188-.459s.79-.331,1.188-.491c.456-.2.958-.409,1.511-.639a15.453,15.453,0,0,1,1.69-.58,8.515,8.515,0,0,1,1.705-.3,4.083,4.083,0,0,1,1.616.206,1.578,1.578,0,0,1,.966.892,2.432,2.432,0,0,1,.105,1.156,5.252,5.252,0,0,1-.5,1.452c-.1-.494-.506-.8-1.219-.919a9.789,9.789,0,0,0-2.55-.027,32.008,32.008,0,0,0-3.189.491c-1.137.23-2.192.44-3.158.638l-.565,1.3c-.2.494-.428,1.067-.7,1.721s-.51,1.258-.728,1.81q-.415,1.04-.74,2.032a4.4,4.4,0,0,0-.3,1.468c.039.14.078.218.117.238a.138.138,0,0,0,.149.089.579.579,0,0,0,.195-.058.945.945,0,0,0,.311-.269,6.308,6.308,0,0,0,.417-.565q.24-.356.491-.771c.167-.276.343-.553.518-.829s.335-.526.475-.744a.877.877,0,0,1,.3-.353,1.011,1.011,0,0,1,.354-.179A.655.655,0,0,1,427.421,355.31Zm-5.872,5.342a.844.844,0,0,0,.149.5,1.111,1.111,0,0,0,.417.3,1.745,1.745,0,0,0,.829.058.947.947,0,0,1-.5-.089,1.233,1.233,0,0,1-.475-.253,1.557,1.557,0,0,1-.418-.514Zm3.909-13.5c-.1.16-.2.327-.3.5a4.993,4.993,0,0,0-.28.518q-.134.28-.28.549a1.642,1.642,0,0,1,.206-.327c.117-.16.257-.335.417-.533a3.458,3.458,0,0,1,.533-.533,1.766,1.766,0,0,1,.592-.327q-.21.029-.385.058a2.579,2.579,0,0,1-.3.043A.816.816,0,0,0,425.459,347.153Zm10.357,1.834a2.715,2.715,0,0,0-.6-.238,4.977,4.977,0,0,0-.744-.074,3.432,3.432,0,0,0-1.039.163,6.815,6.815,0,0,1,.892-.058,7.311,7.311,0,0,1,.771.043A3.273,3.273,0,0,1,435.815,348.987Z" transform="translate(-379.698 -344.007)" fill="#582816"/>
      <path id="Path_27" data-name="Path 27" d="M443.638,364.446a.636.636,0,0,1,.358.755,3.791,3.791,0,0,1-.475,1.23c-.078.14-.2.35-.353.639s-.347.619-.565.993q-.239.327-.607.818a6.884,6.884,0,0,1-.9.966,8.565,8.565,0,0,1-1.219.892,4.9,4.9,0,0,1-1.511.6l-.654.09a3.183,3.183,0,0,1-.86,0,5.057,5.057,0,0,1-1.958-.475,2.256,2.256,0,0,1-.829-.623l-.031-.031a2.351,2.351,0,0,1-.549-1.3,7.615,7.615,0,0,1-.016-1.425,9.308,9.308,0,0,1,1.406-3.843,5.949,5.949,0,0,1,1.3-1.394,4.116,4.116,0,0,1,1.441-.713,5.668,5.668,0,0,1,1.425-.195,3,3,0,0,1,.771.089,2.145,2.145,0,0,1,.728.353,1.912,1.912,0,0,1,.67.977l.031.031a1.2,1.2,0,0,0,.043.222,2.753,2.753,0,0,1,.074.46,2.665,2.665,0,0,1,.031.475,3.288,3.288,0,0,1-.149.892l-.031.058v.058a1.3,1.3,0,0,1-.117.269v.031a6.062,6.062,0,0,1-.343.639,3.459,3.459,0,0,1-.577.712,3.3,3.3,0,0,1-.86.58,3.047,3.047,0,0,1-1.188.269,2.015,2.015,0,0,1-.666-.043,1.949,1.949,0,0,0-.311-.074,2.849,2.849,0,0,1-.771-.417c-.039.16-.074.335-.105.533a1.519,1.519,0,0,0,.016.565,1.113,1.113,0,0,0,.031.195,1.365,1.365,0,0,0,.117.311,2.365,2.365,0,0,0,.149.195.639.639,0,0,0,.206.163.375.375,0,0,0,.238.149l.117.059a2.2,2.2,0,0,0,.934.089,3.168,3.168,0,0,0,.876-.237l.565-.269a4.039,4.039,0,0,0,.771-.654c.238-.257.444-.494.623-.712l.327-.444c.218-.335.44-.685.666-1.055s.44-.688.639-.966a1.351,1.351,0,0,1,.3-.353.992.992,0,0,1,.343-.179A.631.631,0,0,1,443.638,364.446Zm-8.332,5.848a2.721,2.721,0,0,0,.919.5,4.135,4.135,0,0,0,1.1.179,3.827,3.827,0,0,0,1.511-.3,6.137,6.137,0,0,1-1.188.121,8.5,8.5,0,0,1-1.141-.089,3.241,3.241,0,0,1-1.2-.416Zm2.161-8.04a2.6,2.6,0,0,0-.993.46,3.191,3.191,0,0,0-.639.638,3.014,3.014,0,0,0-.475.8,5.281,5.281,0,0,1,.592-.666c.238-.226.463-.432.681-.607a9.125,9.125,0,0,1,.833-.627Zm2.106,1.1q-.6-.3-1.425.432a5.752,5.752,0,0,0-1.425,2.212,1.968,1.968,0,0,0,.592.253,2.06,2.06,0,0,0,1.188-.105,2.032,2.032,0,0,0,.712-.46,1.939,1.939,0,0,0,.4-.607,2.716,2.716,0,0,0,.179-.639,3.37,3.37,0,0,0,.043-.491c-.035-.318-.125-.517-.265-.6Zm-1.775,3.2a1.649,1.649,0,0,0,.533.031,1.81,1.81,0,0,0,.475-.132,1.176,1.176,0,0,0,.444-.37,2.262,2.262,0,0,1-.417.269,4.175,4.175,0,0,1-.475.164,1.5,1.5,0,0,1-.561.04Z" transform="translate(-387.52 -353.147)" fill="#582816"/>
      <path id="Path_28" data-name="Path 28" d="M461.1,370.9a1.568,1.568,0,0,1-.981-.565,2.575,2.575,0,0,1-.491-1.114,4.65,4.65,0,0,1,.163-2.033,4.2,4.2,0,0,1,.117-.565c.039-.2.1-.436.179-.712s.179-.611.3-1.008a.774.774,0,0,1,.09-.238c.039-.117.086-.273.132-.46a2.8,2.8,0,0,0,.09-.565,1.873,1.873,0,0,0-.031-.5.279.279,0,0,0-.222-.253c-.14-.039-.346.074-.623.343a7.34,7.34,0,0,0-.888,1.082,13.411,13.411,0,0,0-.934,1.6,11.705,11.705,0,0,0-.755,1.9,5.3,5.3,0,0,0-.195.681q-.076.356-.164.712a1.7,1.7,0,0,0-.058.744,1.529,1.529,0,0,0,.164.475.853.853,0,0,0,.237.269.486.486,0,0,0,.163.089,1.927,1.927,0,0,1-.533.222c-.2.051-.385.093-.565.132a1.109,1.109,0,0,1-.269.031,1.607,1.607,0,0,1-1.04-.179,1.316,1.316,0,0,1-.506-.607,2.324,2.324,0,0,1-.164-.755,3.814,3.814,0,0,1,.016-.623,30.209,30.209,0,0,1,.651-3.263q.415-1.6.919-3.088l.475-1.363.031-.031c.058-.019.179-.055.353-.105a2.986,2.986,0,0,1,.666-.089,5.557,5.557,0,0,1,.892.043,3.121,3.121,0,0,1,1.023.327,1.709,1.709,0,0,1-.09.3c-.058.179-.149.417-.265.712a5.662,5.662,0,0,1,1.1-.861,2.585,2.585,0,0,1,1.215-.385,2.642,2.642,0,0,1,.5.058,1.86,1.86,0,0,1,1.6,1.215,4.172,4.172,0,0,1-.179,2.729,16.137,16.137,0,0,0-.549,1.721c-.129.514-.113.822.047.919a.139.139,0,0,0,.149.089.477.477,0,0,0,.206-.058,1.065,1.065,0,0,0,.3-.269,6.317,6.317,0,0,0,.417-.565q.239-.356.491-.771c.167-.276.343-.553.518-.829s.335-.526.475-.744a.917.917,0,0,1,.3-.358,1.014,1.014,0,0,1,.353-.179.609.609,0,0,1,.444.058.651.651,0,0,1,.37.755,3.552,3.552,0,0,1-.46,1.23c-.117.218-.331.6-.639,1.156a11.919,11.919,0,0,1-1.125,1.663,7.052,7.052,0,0,1-1.542,1.425A2.549,2.549,0,0,1,461.1,370.9Zm-6.234-.8a1.26,1.26,0,0,0,.179.417,1.142,1.142,0,0,0,.343.269,1.215,1.215,0,0,0,.639.09,2.522,2.522,0,0,1-.459-.164,1.593,1.593,0,0,1-.7-.611Zm1.363-7.063c.039-.078.105-.195.195-.343a3.839,3.839,0,0,1,.343-.475,2.453,2.453,0,0,1,.475-.444,1.5,1.5,0,0,1,.565-.253,3.506,3.506,0,0,1-.417.031,1.532,1.532,0,0,1-.3.031.5.5,0,0,0-.206.031Zm4.275,6.53a.843.843,0,0,0,.149.5,1.111,1.111,0,0,0,.417.3,1.744,1.744,0,0,0,.829.058.948.948,0,0,1-.5-.089,1.233,1.233,0,0,1-.475-.253,1.7,1.7,0,0,1-.417-.514Z" transform="translate(-400.264 -352.929)" fill="#582816"/>
      <path id="Path_29" data-name="Path 29" d="M491.591,351.63q-.327.742-.728,1.721t-.728,1.81c-.136.339-.273.681-.4,1.04s-.238.688-.327.993-.163.588-.222.845a1.889,1.889,0,0,0-.058.623c0,.14.031.218.089.238a.139.139,0,0,0,.149.09.478.478,0,0,0,.206-.058,1.063,1.063,0,0,0,.3-.269,6.3,6.3,0,0,0,.417-.565c.16-.238.319-.494.491-.771s.343-.553.518-.829.335-.526.475-.744a.916.916,0,0,1,.3-.358,1.013,1.013,0,0,1,.353-.179.705.705,0,0,1,.475.058.66.66,0,0,1,.343.755,3.554,3.554,0,0,1-.46,1.23c-.1.179-.257.471-.475.876a13.8,13.8,0,0,1-.8,1.293,10.927,10.927,0,0,1-1.083,1.321,4.218,4.218,0,0,1-1.351.966,3.165,3.165,0,0,1-.7.222,2.137,2.137,0,0,1-.755.016,1.793,1.793,0,0,1-.623-.238,1.86,1.86,0,0,1-.475-.46,2.177,2.177,0,0,1-.358-.845,4.2,4.2,0,0,1-1.188,1.188,2.828,2.828,0,0,1-1.869.417,3.113,3.113,0,0,1-1.215-.311,2.23,2.23,0,0,1-.755-.623,2.292,2.292,0,0,1-.4-.845,5.353,5.353,0,0,1-.149-.95,6.948,6.948,0,0,1,.385-2.493,8.573,8.573,0,0,1,1.051-2.239,5.95,5.95,0,0,1,1.3-1.394,4.116,4.116,0,0,1,1.441-.713,5.672,5.672,0,0,1,1.425-.195,2.756,2.756,0,0,1,1.187.206,2.121,2.121,0,0,1,.623.444c.121-.316.237-.635.353-.95s.218-.553.3-.713c.277-.674.533-1.285.771-1.842s.456-1.028.651-1.425c.218-.475.424-.892.623-1.246l.3-.149a2.177,2.177,0,0,1,.432-.105,4.882,4.882,0,0,1,.7-.047,2.539,2.539,0,0,1,.712.09,4.129,4.129,0,0,1,.506.179,2.079,2.079,0,0,1,.385.238,13.048,13.048,0,0,0-.654,1.3c-.2.417-.424.912-.681,1.483S491.868,350.943,491.591,351.63Zm-10.174,8.551a1.256,1.256,0,0,0,.206.592,1.29,1.29,0,0,0,.475.428,2.257,2.257,0,0,0,.919.253,1.219,1.219,0,0,1-.222-.089,2.776,2.776,0,0,1-.428-.253,6.237,6.237,0,0,1-.5-.385A1.708,1.708,0,0,1,481.418,360.181Zm.5-4.123a6.559,6.559,0,0,1,.771-1.219,8,8,0,0,1,.814-.86,5.529,5.529,0,0,1,.681-.533,2.466,2.466,0,0,1,.37-.206,2.92,2.92,0,0,0-1.23.67,5.675,5.675,0,0,0-.814.934,6.056,6.056,0,0,0-.592,1.215Zm4.688.8a.235.235,0,0,0,.031-.149l-.031.058c.019-.058.07-.206.149-.444a5.638,5.638,0,0,0,.195-.8,3.392,3.392,0,0,0,.043-.829.552.552,0,0,0-.269-.5.9.9,0,0,0-.712,0,2.462,2.462,0,0,0-.8.549,5.308,5.308,0,0,0-.814,1.055,8.181,8.181,0,0,0-.7,1.483,5.814,5.814,0,0,0-.265,1.129,1.978,1.978,0,0,0,.047.8.573.573,0,0,0,.518.444,1.149,1.149,0,0,0,.58-.031,1.729,1.729,0,0,0,.654-.4,4.2,4.2,0,0,0,.7-.892,7.85,7.85,0,0,0,.681-1.525v.055Zm.385,3.769a.842.842,0,0,0,.149.5,1.1,1.1,0,0,0,.428.3,1.726,1.726,0,0,0,.818.058.967.967,0,0,1-.506-.089,1.233,1.233,0,0,1-.475-.253,1.7,1.7,0,0,1-.414-.514Zm3.912-13.5c-.1.16-.2.327-.3.506a5.825,5.825,0,0,0-.28.518q-.134.28-.28.549a1.649,1.649,0,0,1,.206-.327c.117-.16.257-.335.417-.533a3.454,3.454,0,0,1,.533-.533,1.689,1.689,0,0,1,.623-.327l-.417.058a2.592,2.592,0,0,1-.3.043A.7.7,0,0,0,490.905,347.122Z" transform="translate(-416.306 -343.988)" fill="#582816"/>
      <path id="Path_30" data-name="Path 30" d="M517.706,364.427a.634.634,0,0,1,.358.755,3.758,3.758,0,0,1-.475,1.23c-.078.14-.2.351-.354.639s-.347.619-.565.993q-.24.327-.607.819a6.9,6.9,0,0,1-.9.966,8.567,8.567,0,0,1-1.219.892,4.9,4.9,0,0,1-1.511.6l-.654.09a3.185,3.185,0,0,1-.861,0,5.057,5.057,0,0,1-1.958-.475,2.253,2.253,0,0,1-.829-.623l-.031-.031a2.35,2.35,0,0,1-.549-1.3,7.618,7.618,0,0,1-.016-1.425,9.309,9.309,0,0,1,1.406-3.843,5.949,5.949,0,0,1,1.3-1.394,4.116,4.116,0,0,1,1.441-.713,5.67,5.67,0,0,1,1.425-.195,2.993,2.993,0,0,1,.771.09,2.144,2.144,0,0,1,.728.353,1.912,1.912,0,0,1,.67.977l.031.031a1.188,1.188,0,0,0,.043.222,2.742,2.742,0,0,1,.074.46,2.678,2.678,0,0,1,.031.475,3.291,3.291,0,0,1-.149.892l-.031.058v.058a1.3,1.3,0,0,1-.117.269v.031a6.078,6.078,0,0,1-.343.639,3.459,3.459,0,0,1-.577.712,3.3,3.3,0,0,1-.86.58,3.046,3.046,0,0,1-1.188.269,2.015,2.015,0,0,1-.666-.043,1.574,1.574,0,0,0-.312-.074,2.846,2.846,0,0,1-.771-.417c-.039.16-.074.335-.105.533a1.521,1.521,0,0,0,.016.565,1.111,1.111,0,0,0,.031.195,1.36,1.36,0,0,0,.117.311,1.827,1.827,0,0,0,.149.191.641.641,0,0,0,.206.164.375.375,0,0,0,.238.149l.117.058a2.2,2.2,0,0,0,.934.09,3.31,3.31,0,0,0,.876-.238l.565-.269a4.05,4.05,0,0,0,.771-.654c.237-.257.444-.495.623-.713l.327-.444c.218-.335.44-.685.666-1.055s.44-.685.638-.966a1.445,1.445,0,0,1,.3-.358.992.992,0,0,1,.343-.179A.641.641,0,0,1,517.706,364.427Zm-8.336,5.848a2.721,2.721,0,0,0,.919.5,4.139,4.139,0,0,0,1.1.179,3.828,3.828,0,0,0,1.511-.3,6.147,6.147,0,0,1-1.188.121,8.5,8.5,0,0,1-1.141-.089A3.441,3.441,0,0,1,509.37,370.275Zm2.165-8.044a2.6,2.6,0,0,0-.993.46,3.192,3.192,0,0,0-.639.639,2.954,2.954,0,0,0-.475.8,5.276,5.276,0,0,1,.592-.666c.238-.226.463-.432.681-.607a9.91,9.91,0,0,1,.833-.627Zm2.106,1.1q-.6-.3-1.425.432a5.75,5.75,0,0,0-1.425,2.212,1.967,1.967,0,0,0,.592.253,2.06,2.06,0,0,0,1.188-.105,2.03,2.03,0,0,0,.712-.459,1.938,1.938,0,0,0,.4-.607,2.764,2.764,0,0,0,.179-.639,3.37,3.37,0,0,0,.043-.491c-.038-.319-.125-.518-.265-.6Zm-1.779,3.2a1.649,1.649,0,0,0,.533.031,1.807,1.807,0,0,0,.475-.132,1.175,1.175,0,0,0,.444-.37,2.259,2.259,0,0,1-.417.269,4.2,4.2,0,0,1-.475.163,1.489,1.489,0,0,1-.56.039Z" transform="translate(-432.749 -353.135)" fill="#582816"/>
      <path id="Path_31" data-name="Path 31" d="M538.746,362.984c-.117.218-.331.6-.639,1.156a11.9,11.9,0,0,1-1.125,1.663,7.05,7.05,0,0,1-1.542,1.425,2.565,2.565,0,0,1-1.885.444,1.578,1.578,0,0,1-.981-.565,2.574,2.574,0,0,1-.491-1.114,4.65,4.65,0,0,1,.164-2.032c.039-.218.1-.494.179-.829.078-.276.179-.623.3-1.04s.276-.912.475-1.483a2.375,2.375,0,0,1-.623-.269c-.218.436-.421.81-.607,1.129s-.331.553-.428.712a3.726,3.726,0,0,1-.814,1.04.632.632,0,0,1-.845.058.549.549,0,0,1-.28-.358,1,1,0,0,1-.016-.385,1.48,1.48,0,0,1,.149-.444c.1-.218.218-.456.353-.713s.273-.518.4-.786.257-.529.385-.787.234-.475.311-.654a2.448,2.448,0,0,1-.358-1.055,2.759,2.759,0,0,1,.089-1.082,1.976,1.976,0,0,1,.5-.86,1.209,1.209,0,0,1,.892-.358.8.8,0,0,1,.829.534,3.62,3.62,0,0,1,.238,1.129c0,.179,0,.351-.015.518s-.016.3-.016.4a.441.441,0,0,0-.016.206.353.353,0,0,0,.074.206.476.476,0,0,0,.206.058.511.511,0,0,0,.222-.132.856.856,0,0,0,.163-.222l.149-.149a.511.511,0,0,1,.417-.09q.268.029.654.1a3.327,3.327,0,0,1,.713.222,1.291,1.291,0,0,1,.534.432.828.828,0,0,1,.117.7l-.888,2.227-.117.269a.533.533,0,0,1-.058.238,11.1,11.1,0,0,0-.385,1.409c-.078.405-.058.658.058.755a.139.139,0,0,0,.149.09.479.479,0,0,0,.206-.058,1.067,1.067,0,0,0,.3-.269,6.3,6.3,0,0,0,.417-.565q.239-.356.49-.771c.167-.276.343-.553.518-.829s.335-.526.475-.744a.915.915,0,0,1,.3-.358,1.012,1.012,0,0,1,.354-.179.609.609,0,0,1,.444.058.648.648,0,0,1,.37.756A3.453,3.453,0,0,1,538.746,362.984Zm-7.3-4.271c-.039-.218-.07-.436-.089-.651a4.592,4.592,0,0,1-.016-.666,3.536,3.536,0,0,1,.132-.787,1.19,1.19,0,0,0-.149.269,2.579,2.579,0,0,0-.105.343,1.833,1.833,0,0,0-.043.428,1.751,1.751,0,0,0,.031.565,1.119,1.119,0,0,0,.238.5Zm1.519,7.624a.843.843,0,0,0,.149.5,1.111,1.111,0,0,0,.417.3,1.746,1.746,0,0,0,.829.058.948.948,0,0,1-.5-.09,1.233,1.233,0,0,1-.475-.253,1.6,1.6,0,0,1-.418-.514Zm3.053-7a.948.948,0,0,0-.37-.353,1.354,1.354,0,0,0-.459-.149,2.452,2.452,0,0,0-.534,0,5.635,5.635,0,0,1,.607.179l.428.149Q535.865,359.244,536.017,359.332Z" transform="translate(-446.224 -349.707)" fill="#582816"/>
    </g>
  </g>
</svg>
