<svg xmlns="http://www.w3.org/2000/svg" width="13.862" height="20.792" viewBox="0 0 13.862 20.792">
  <path id="ic_location" d="M15.931,22.982c.5,0,1.709-1.371,2.785-3.826a21.493,21.493,0,0,0,1.835-7.318A4.839,4.839,0,0,0,15.931,6.81a4.839,4.839,0,0,0-4.621,5.028,21.5,21.5,0,0,0,1.835,7.317C14.221,21.611,15.426,22.982,15.931,22.982Zm0,2.31C12.1,25.292,9,15.892,9,11.838A7.143,7.143,0,0,1,15.931,4.5a7.143,7.143,0,0,1,6.931,7.338C22.862,15.891,19.759,25.292,15.931,25.292Zm0-11.551a2.31,2.31,0,1,0-2.31-2.31A2.31,2.31,0,0,0,15.931,13.741Z" transform="translate(-9 -4.5)" fill="#949494"/>
</svg>
