<svg id="ic_price" xmlns="http://www.w3.org/2000/svg" width="13.726" height="13.726" viewBox="0 0 13.726 13.726">
  <g id="Group_3648" data-name="Group 3648" transform="translate(3.585 3.585)">
    <g id="Group_3647" data-name="Group 3647">
      <path id="Path_11587" data-name="Path 11587" d="M348.28,133.835a.4.4,0,1,1,0,.569A.4.4,0,0,1,348.28,133.835Z" transform="translate(-348.161 -133.716)" fill="#00c269"/>
    </g>
  </g>
  <g id="Group_3650" data-name="Group 3650" transform="translate(7.566 5.291)">
    <g id="Group_3649" data-name="Group 3649" transform="translate(0)">
      <path id="Path_11588" data-name="Path 11588" d="M199.789,197.474a.4.4,0,1,1,0,.569A.4.4,0,0,1,199.789,197.474Z" transform="translate(-199.669 -197.355)" fill="#00c269"/>
    </g>
  </g>
  <g id="Group_3652" data-name="Group 3652" transform="translate(6.997 9.272)">
    <g id="Group_3651" data-name="Group 3651" transform="translate(0)">
      <path id="Path_11589" data-name="Path 11589" d="M221,345.967a.4.4,0,1,1,0,.569A.4.4,0,0,1,221,345.967Z" transform="translate(-220.882 -345.848)" fill="#00c269"/>
    </g>
  </g>
  <g id="Group_3654" data-name="Group 3654" transform="translate(0.262 0.262)">
    <g id="Group_3653" data-name="Group 3653">
      <path id="Path_11590" data-name="Path 11590" d="M.036,15.225l.91-3.64a1.28,1.28,0,0,1,.085-.222l1.609,1.609a1.206,1.206,0,1,0,.569-.569L1.6,10.795a1.281,1.281,0,0,1,.222-.085l3.64-.91a1.212,1.212,0,0,1,1.149.318l6.5,6.5a1.2,1.2,0,0,1,0,1.706l-4.55,4.55a1.2,1.2,0,0,1-1.706,0l-6.5-6.5A1.212,1.212,0,0,1,.036,15.225Zm8.525-.881a1.206,1.206,0,1,0,0,1.706A1.2,1.2,0,0,0,8.561,14.343ZM6.286,20.03a1.206,1.206,0,1,0,0-1.706A1.2,1.2,0,0,0,6.286,20.03ZM4.82,17.3l5.118.569a.4.4,0,1,0,.089-.8L4.909,16.5a.4.4,0,1,0-.089.8Z" transform="translate(0 -9.764)" fill="#00c269"/>
    </g>
  </g>
  <g id="Group_3656" data-name="Group 3656" transform="translate(0)">
    <g id="Group_3655" data-name="Group 3655">
      <path id="Path_11591" data-name="Path 11591" d="M442.679.119a.4.4,0,0,1,.569,0l1.174,1.173a1.153,1.153,0,0,0-.569.569L442.679.688A.4.4,0,0,1,442.679.119Z" transform="translate(-442.56 0)" fill="#00c269"/>
    </g>
  </g>
</svg>
