<svg xmlns="http://www.w3.org/2000/svg" width="21.876" height="18.89" viewBox="0 0 21.876 18.89">
  <path id="ic_shopping_basket" d="M16.138,7.178H20.9a.913.913,0,0,1,.7.3.974.974,0,0,1,.28.676v.28l-2.519,9.235a2.049,2.049,0,0,1-.723,1.026,1.95,1.95,0,0,1-1.236.42H4.478a1.857,1.857,0,0,1-1.213-.42,2.1,2.1,0,0,1-.7-1.026L.046,8.438A.653.653,0,0,1,0,8.158a.937.937,0,0,1,.3-.676.937.937,0,0,1,.676-.3h4.8L10.121.649a1,1,0,0,1,1.633,0Zm-8.162,0h5.97L10.962,2.794Zm2.962,7.976a1.908,1.908,0,0,0,1.4-.583,2.027,2.027,0,0,0,0-2.845,1.971,1.971,0,0,0-2.8,0,2.026,2.026,0,0,0,0,2.845,1.909,1.909,0,0,0,1.4.583Z" transform="translate(0 -0.229)" fill="#434340"/>
</svg>
