<svg xmlns="http://www.w3.org/2000/svg" xmlns:xlink="http://www.w3.org/1999/xlink" width="73" height="73" viewBox="0 0 73 73">
  <defs>
    <filter id="Ellipse_5" x="0" y="0" width="73" height="73" filterUnits="userSpaceOnUse">
      <feOffset dy="3" input="SourceAlpha"/>
      <feGaussianBlur stdDeviation="3" result="blur"/>
      <feFlood flood-opacity="0.059"/>
      <feComposite operator="in" in2="blur"/>
      <feComposite in="SourceGraphic"/>
    </filter>
  </defs>
  <g id="Group_3573" data-name="Group 3573" transform="translate(-1032 -273)">
    <g transform="matrix(1, 0, 0, 1, 1032, 273)" filter="url(#Ellipse_5)">
      <circle id="Ellipse_5-2" data-name="Ellipse 5" cx="27.5" cy="27.5" r="27.5" transform="translate(9 6)" fill="#efefef"/>
    </g>
    <path id="shopping-bag" d="M12,12V7.5a3,3,0,0,1,3-3h6a3,3,0,0,1,3,3V12h4.5a3,3,0,0,1,3,3V28.5a3,3,0,0,1-3,3H7.5a3,3,0,0,1-3-3V15a3,3,0,0,1,3-3ZM7.5,15V28.5h21V15H24v4.5H21V15H15v4.5H12V15ZM15,12h6V7.5H15Z" transform="translate(1050.5 288.5)" fill="#434340"/>
  </g>
</svg>
